# xmcd
#
# Track frame offsets:
#	150
#	14616
#	31300
#	47649
#	69497
#	84958
#	95127
#	111695
#	127989
#	138964
#
# Disc length: 2111 seconds
#
# Revision: 0
# Processed by: cddbd v1.5.2PL0 Copyright (c) Steve Scherf et al.
# Submitted via: FairStars CD Ripper 1.52
#
DISCID=87083d0a
DTITLE=Three Little Birds - Three Little Birds
DYEAR=2011
DGENRE=Other
TTITLE0=Outside In
TTITLE1=Dirty Old Man
TTITLE2=Misery
TTITLE3=Apartheid
TTITLE4=Oil and Water
TTITLE5=Uranium Mining
TTITLE6=Freedom and Love
TTITLE7=The Fire This Time
TTITLE8=More, More More
TTITLE9=We Are an Ocean
EXTD=
EXTT0=
EXTT1=
EXTT2=
EXTT3=
EXTT4=
EXTT5=
EXTT6=
EXTT7=
EXTT8=
EXTT9=
PLAYORDER=
